<?xml version="1.0" standalone="no"?>
<!DOCTYPE svg PUBLIC "-//W3C//DTD SVG 20010904//EN"
 "http://www.w3.org/TR/2001/REC-SVG-20010904/DTD/svg10.dtd">
<svg version="1.0" xmlns="http://www.w3.org/2000/svg"
 width="599.000000pt" height="151.000000pt" viewBox="0 0 599.000000 151.000000"
 preserveAspectRatio="xMidYMid meet">
<metadata>
Created by potrace 1.16, written by Peter Selinger 2001-2019
</metadata>
<g transform="translate(0.000000,151.000000) scale(0.100000,-0.100000)"
fill="#000000" stroke="none">
<path d="M4410 1499 c25 -5 74 -14 110 -19 183 -26 347 -51 450 -70 135 -23
326 -55 425 -70 126 -19 195 -34 195 -41 0 -3 -14 -12 -30 -19 -17 -7 -29 -15
-26 -17 2 -2 22 5 45 16 40 21 44 21 138 7 95 -14 99 -14 145 7 49 22 58 40
58 115 0 27 7 42 28 60 26 22 26 23 2 10 -14 -7 -27 -12 -30 -11 -3 1 -61 11
-130 22 -117 20 -157 21 -595 19 l-470 -3 200 -34 c110 -19 223 -38 250 -42
41 -6 325 -55 590 -101 33 -6 66 -11 73 -11 21 -1 7 -22 -17 -25 -13 -2 -93 8
-179 22 -172 29 -237 39 -357 56 -44 6 -136 22 -205 36 -111 21 -256 44 -560
89 -109 17 -185 19 -110 4z"/>
<path d="M5957 958 c-14 -12 -16 -48 -18 -319 -1 -169 1 -311 5 -317 8 -14 39
-8 44 8 3 9 -1 11 -11 7 -11 -4 -18 1 -22 14 -9 29 2 36 20 13 12 -17 14 19
14 294 1 171 -3 312 -7 312 -5 0 -16 -6 -25 -12z"/>
<path d="M1795 850 c-16 -4 -64 -8 -105 -9 -125 -2 -222 -37 -302 -109 -72
-65 -157 -179 -163 -220 -3 -20 -14 -66 -26 -102 -18 -60 -24 -160 -9 -160 3
0 14 -15 23 -34 15 -32 15 -35 -4 -52 -10 -9 -19 -22 -19 -27 0 -6 8 0 19 11
33 39 51 29 51 -27 0 -28 3 -52 8 -54 4 -3 7 47 8 111 0 97 5 127 24 177 51
131 124 214 240 268 60 29 73 31 180 31 97 1 124 -3 170 -22 51 -20 164 -101
155 -110 -2 -2 -25 3 -51 12 -26 9 -64 15 -83 15 -20 -1 -27 -3 -16 -5 11 -2
55 -12 99 -22 78 -17 78 -17 102 -64 13 -26 31 -73 39 -105 19 -72 19 -222 1
-293 -8 -30 -13 -57 -10 -59 6 -6 22 43 29 92 8 52 16 57 40 25 l16 -23 -6 25
c-3 14 0 54 8 90 l13 65 213 -2 c117 -1 210 1 206 5 -3 3 -99 9 -213 12 l-207
5 -3 40 c-6 94 -24 182 -48 228 -13 27 -22 52 -20 55 3 2 40 0 83 -6 110 -16
229 -26 223 -19 -3 3 -48 10 -100 16 -238 26 -209 17 -268 82 -30 33 -59 59
-66 59 -6 0 -23 8 -36 17 l-25 18 30 6 c24 5 21 7 -20 8 -28 0 -55 5 -60 9 -6
5 -30 14 -55 22 -38 11 -42 14 -25 21 25 10 0 9 -40 -1z"/>
</g>
</svg>
